<?xml version="1.0" standalone="no"?>
<!DOCTYPE svg PUBLIC "-//W3C//DTD SVG 20010904//EN"
 "http://www.w3.org/TR/2001/REC-SVG-20010904/DTD/svg10.dtd">
<svg version="1.0" xmlns="http://www.w3.org/2000/svg"
 width="601.000000pt" height="415.000000pt" viewBox="0 0 601.000000 415.000000"
 preserveAspectRatio="xMidYMid meet">

<g transform="translate(0.000000,415.000000) scale(0.100000,-0.100000)"
fill="#000000" stroke="none">
<path d="M954 3126 c-32 -14 -74 -60 -74 -81 0 -7 -16 -16 -35 -19 -74 -14
-78 -23 -166 -361 -62 -238 -87 -319 -109 -350 -104 -150 -160 -370 -167 -660
-7 -299 10 -952 25 -967 9 -9 69 -14 219 -18 l205 -5 2 -90 c1 -103 25 -181
65 -218 15 -13 49 -32 76 -42 61 -22 107 -51 169 -104 51 -45 73 -49 164 -31
159 30 284 157 315 319 11 57 14 61 38 61 22 0 33 -10 57 -53 65 -115 170
-181 287 -180 115 0 207 57 281 173 l39 61 275 -6 c151 -3 385 -11 520 -16
135 -6 315 -9 400 -7 l155 3 7 -70 c14 -153 91 -274 219 -348 51 -29 160 -65
223 -73 54 -8 168 16 296 63 118 42 163 69 220 129 l45 47 -64 -43 c-81 -54
-199 -113 -280 -139 -35 -12 -67 -21 -70 -21 -2 0 22 16 55 36 32 19 70 45 83
57 38 34 95 129 120 196 l22 61 142 0 141 0 -44 -45 -44 -45 49 0 c172 1 461
22 546 39 183 38 365 118 400 175 35 58 17 150 -44 222 l-27 32 0 260 c0 452
-17 534 -152 739 -47 70 -144 217 -216 326 -73 109 -137 217 -143 239 -14 52
-150 373 -192 453 -45 86 -183 221 -267 262 -36 18 -85 36 -110 42 -30 7 -635
10 -1835 10 -1476 0 -1795 -2 -1821 -13z m4680 -1959 c8 -50 -9 -130 -30 -148
-21 -17 -43 -3 -59 36 -26 61 -13 174 23 194 25 15 58 -26 66 -82z m-328 41
c37 -71 27 -224 -18 -265 -24 -22 -46 -10 -71 38 -24 46 -21 192 6 232 25 38
62 36 83 -5z m334 -328 c19 -36 3 -57 -51 -70 -65 -16 -81 -9 -77 32 3 29 8
33 48 44 63 17 68 16 80 -6z m-4312 -39 c98 -51 156 -151 157 -271 1 -167
-114 -294 -266 -295 -48 0 -72 5 -85 16 -11 9 -38 26 -60 37 -81 41 -132 158
-120 274 7 73 56 169 102 205 84 63 189 76 272 34z m4020 -26 c14 -30 15 -64
4 -83 -8 -12 -126 -41 -168 -42 -12 0 -25 7 -28 16 -8 22 -7 87 2 100 4 6 43
15 87 21 44 5 83 11 86 11 3 1 11 -9 17 -23z m-1100 -25 c199 -100 240 -372
81 -531 -59 -59 -129 -89 -210 -89 -87 0 -148 22 -208 76 -136 122 -149 340
-28 471 72 79 123 101 233 102 60 1 80 -4 132 -29z m1474 -90 c21 -40 24 -118
6 -143 -24 -31 -266 -137 -357 -157 -70 -15 -387 -40 -506 -40 l-28 0 44 49
44 49 102 1 101 1 27 32 c15 18 32 45 37 59 8 25 15 27 98 38 139 18 267 63
365 130 37 26 43 24 67 -19z m-3509 -161 c-57 -97 -191 -135 -299 -85 -44 21
-114 87 -114 108 0 5 97 8 216 8 l215 0 -18 -31z"/>
<path d="M5583 1193 c13 -16 13 -20 1 -31 -18 -17 -18 -71 0 -78 8 -3 12 -13
10 -22 -5 -13 -2 -13 10 2 30 37 13 146 -22 146 -13 0 -13 -2 1 -17z"/>
<path d="M5250 1183 c0 -3 8 -15 17 -26 17 -18 17 -19 0 -28 -23 -13 -24 -94
-1 -107 14 -8 14 -13 4 -33 l-12 -24 22 21 c37 36 40 153 4 189 -16 15 -34 20
-34 8z"/>
<path d="M1104 781 c-66 -40 -106 -119 -106 -209 0 -100 60 -196 136 -221 25
-8 28 -8 12 2 -88 56 -132 140 -123 239 7 76 40 143 90 179 45 33 39 39 -9 10z"/>
<path d="M1347 737 c97 -111 60 -307 -70 -372 -42 -20 -46 -25 -25 -25 14 0
47 15 74 32 81 55 123 172 94 264 -16 52 -55 110 -82 125 -19 10 -17 6 9 -24z"/>
<path d="M1162 714 c-50 -26 -75 -69 -80 -136 -4 -51 -1 -64 22 -99 82 -124
256 -61 256 92 0 113 -106 190 -198 143z"/>
<path d="M4043 727 c-50 -19 -47 -24 7 -13 101 20 216 -47 256 -150 12 -32 15
-63 12 -116 -5 -67 -4 -70 8 -43 18 41 17 138 -1 182 -38 91 -106 141 -199
149 -28 2 -65 -2 -83 -9z"/>
<path d="M4053 669 c-46 -13 -99 -68 -112 -114 -16 -58 -14 -93 10 -142 49
-102 173 -129 260 -56 36 31 68 94 69 136 0 69 -66 159 -130 177 -41 12 -54
11 -97 -1z"/>
<path d="M3857 603 c-6 -16 -12 -64 -11 -108 0 -67 4 -88 26 -131 53 -102 159
-162 264 -151 89 9 89 22 1 22 -65 0 -91 5 -123 22 -55 29 -119 103 -138 160
-18 52 -21 148 -6 187 13 35 3 33 -13 -1z"/>
<path d="M1870 515 c23 -28 91 -55 140 -55 49 0 117 27 140 55 12 15 8 14 -30
-5 -57 -29 -148 -31 -205 -5 -22 11 -44 21 -50 24 -5 2 -3 -4 5 -14z"/>
<path d="M1690 393 c-31 -60 -129 -159 -195 -197 -63 -37 -62 -35 -45 -46 27
-17 60 -10 114 24 94 60 163 168 154 241 -3 23 -5 21 -28 -22z"/>
</g>
</svg>
